HIERARCHY
ROOT hip
{
	OFFSET 0.000000 0.000000 0.000000 
	CHANNELS 6 Xposition Yposition Zposition Xrotation Zrotation Yrotation
	JOINT abdomen
	{
		OFFSET 0.000000 3.402643 0.000000 
		CHANNELS 3 Xrotation Zrotation Yrotation
		JOINT chest
		{
			OFFSET 0.000000 8.438565 -0.680529 
			CHANNELS 3 Xrotation Zrotation Yrotation
			JOINT neck
			{
				OFFSET 0.000000 10.207942 -0.272212 
				CHANNELS 3 Xrotation Zrotation Yrotation
				JOINT head
				{
					OFFSET 0.000000 3.130431 0.000000 
					CHANNELS 3 Xrotation Zrotation Yrotation
					End Site
					{
						OFFSET 0.000000 3.130435 0.000000 
					}
				}
			}
			JOINT lCollar
			{
				OFFSET 3.470700 6.669187 -0.816635 
				CHANNELS 3 Yrotation Zrotation Xrotation
				JOINT lShldr
				{
					OFFSET 3.198488 0.000000 0.000000 
					CHANNELS 3 Zrotation Yrotation Xrotation
					JOINT lForeArm
					{
						OFFSET 10.139888 0.000000 0.000000 
						CHANNELS 3 Yrotation Zrotation Xrotation
						JOINT lHand
						{
							OFFSET 8.370511 0.000000 0.000000 
							CHANNELS 3 Zrotation Yrotation Xrotation
							End Site
							{
								OFFSET 4.083176 0.000000 0.000000 
							}
						}
					}
				}
			}
			JOINT rCollar
			{
				OFFSET -3.470700 6.669187 -0.816635 
				CHANNELS 3 Yrotation Zrotation Xrotation
				JOINT rShldr
				{
					OFFSET -3.198488 0.000000 0.000000 
					CHANNELS 3 Zrotation Yrotation Xrotation
					JOINT rForeArm
					{
						OFFSET -10.139888 0.000000 0.000000 
						CHANNELS 3 Yrotation Zrotation Xrotation
						JOINT rHand
						{
							OFFSET -8.370511 0.000000 0.000000 
							CHANNELS 3 Zrotation Yrotation Xrotation
							End Site
							{
								OFFSET -4.083176 0.000000 0.000000 
							}
						}
					}
				}
			}
		}
	}
	JOINT lThigh
	{
		OFFSET 5.308129 -1.633274 1.361059 
		CHANNELS 3 Xrotation Zrotation Yrotation
		JOINT lShin
		{
			OFFSET -2.041588 -20.007561 0.000000 
			CHANNELS 3 Xrotation Zrotation Yrotation
			JOINT lFoot
			{
				OFFSET 0.000000 -19.190928 -1.224953 
				CHANNELS 3 Xrotation Yrotation Zrotation
				End Site
				{
					OFFSET 0.000000 -2.449906 4.627600 
				}
			}
		}
	}
	JOINT rThigh
	{
		OFFSET -5.308129 -1.633274 1.361059 
		CHANNELS 3 Xrotation Zrotation Yrotation
		JOINT rShin
		{
			OFFSET 2.041588 -20.007561 0.000000 
			CHANNELS 3 Xrotation Zrotation Yrotation
			JOINT rFoot
			{
				OFFSET 0.000000 -19.190928 -1.224953 
				CHANNELS 3 Xrotation Yrotation Zrotation
				End Site
				{
					OFFSET 0.000000 -2.449906 4.627600 
				}
			}
		}
	}
}
MOTION
Frames: 15
Frame Time: 0.050000
-0.004552 52.294918 0.371324 0.000000 0.000000 0.000000 1.018161 -0.015709 0.001127 1.616875 -0.068631 0.011327 1.733998 -0.325004 -0.010468 -0.086501 0.091221 -0.014684 1.873724 -5.416935 -0.064403 -59.415142 16.754374 17.667694 -35.989731 -7.771534 -4.311195 5.133619 5.700052 -1.063449 -2.173924 5.290259 -0.001181 59.900959 -15.646652 17.166435 32.362957 12.635512 -2.539090 -3.524905 -2.122834 -2.028380 -13.612045 4.497028 0.137584 28.831387 -3.899776 -2.104432 -15.464003 1.179360 -0.367304 -13.610057 -4.784067 0.123067 28.780521 3.882394 1.921730 -15.512794 -1.719447 0.420218 
-0.010240 50.917690 0.445830 0.000000 0.000000 0.000000 2.064468 -0.034970 -0.001957 3.427592 -0.139406 0.018348 3.768334 -0.706301 -0.022749 -0.294115 0.198243 -0.034790 1.738459 -5.167413 -0.065364 -47.092705 24.572634 19.594475 -51.540859 -5.989342 -9.520329 4.156883 12.460003 -2.539742 -2.312666 4.925114 0.055565 48.093208 -22.120895 18.542141 43.764084 16.499969 -5.745087 -0.625117 -4.786094 -4.496925 -18.451998 4.881024 0.112347 39.233753 -4.149398 -3.219606 -20.989532 1.256096 0.086141 -18.477676 -5.139310 0.176025 39.221684 4.137331 3.030545 -21.049606 -1.801260 -0.012272 
-0.018107 50.207153 0.477648 0.000000 0.000000 0.000000 1.379720 -0.058167 -0.048668 3.956980 -0.096067 -0.039212 5.335950 -1.000120 -0.032212 -1.520100 0.280711 -0.079193 2.021920 -5.690310 -0.063351 -39.795300 29.057301 20.590500 -61.377300 -4.961130 -13.466700 3.512730 16.985100 -3.976380 -2.021920 5.690310 -0.063351 40.389801 -25.345600 19.328501 51.469826 19.179800 -8.803940 1.976780 -7.063970 -5.298480 -20.580112 5.044665 0.088184 43.811947 -4.179464 -3.719604 -23.424221 1.276742 0.264553 -20.595350 -5.286973 0.212114 43.778599 4.187866 3.535518 -23.477573 -1.832180 -0.224473 
-0.024287 50.768509 0.423455 0.000000 0.000000 0.000000 -2.395458 -0.082339 -0.163457 2.077727 0.143276 -0.207912 5.898341 -1.105529 -0.035608 -4.366530 0.310297 -0.153359 2.989475 -7.572152 -0.063315 -42.364014 26.925434 19.786909 -59.878757 -5.372922 -14.483195 3.823878 17.032614 -5.193772 -0.968049 8.412091 -0.489194 40.927189 -22.265930 18.942612 51.690372 19.375071 -10.858658 3.461437 -8.509402 -3.017130 -18.994699 4.932830 0.103248 40.302353 -4.158970 -3.339857 -21.497404 1.271591 0.104611 -19.001810 -5.151322 0.181703 40.271679 4.138422 3.136489 -21.578358 -1.808326 -0.071003 
-0.002110 52.040348 0.290462 0.000000 0.000000 0.000000 -7.835074 -0.083321 -0.274060 -1.313731 0.445341 -0.427666 5.736419 -1.075180 -0.034630 -7.362792 0.301779 -0.184247 4.030186 -10.170990 -0.103771 -51.128189 20.101238 17.849096 -51.309570 -6.500994 -12.151805 6.289315 14.339257 -6.109611 0.529554 11.990705 -1.065363 46.866146 -14.988771 17.709290 46.986889 17.572186 -9.669486 2.321472 -9.767118 0.878633 -14.744857 4.579631 0.140008 30.988152 -3.976104 -2.327360 -16.481709 1.190176 -0.257446 -14.736386 -4.871478 0.124428 30.946112 3.964018 2.155460 -16.533148 -1.731927 0.334577 
0.080795 53.169582 0.098508 0.000000 0.000000 0.000000 -12.816797 -0.031647 -0.284030 -4.815021 0.623053 -0.611727 5.335950 -1.000120 -0.032212 -8.520100 0.280711 -0.079193 4.314043 -12.537759 -0.231623 -60.289238 11.810699 15.826021 -42.405220 -7.269185 -6.366794 12.252100 11.636600 -6.665910 1.988242 14.844906 -1.563295 53.623539 -6.911429 16.180277 41.508293 14.704120 -2.650972 -3.122504 -11.754798 4.199219 -9.768288 4.067308 0.158032 20.025101 -3.543511 -1.225340 -10.519890 1.095845 -0.621800 -9.787580 -4.586547 0.097928 20.023888 3.533732 1.019439 -10.585788 -1.589599 0.878372 
0.242926 53.520851 -0.147262 0.000000 0.000000 0.000000 -15.738819 0.076852 -0.144894 -7.304046 0.537788 -0.692671 5.091331 -0.954271 -0.030736 -6.380908 0.267842 0.208008 3.246287 -13.919806 -0.475354 -65.239822 4.722684 14.554306 -38.515999 -6.848300 2.635280 22.526268 11.072767 -6.833986 3.015871 15.759265 -1.804252 57.529629 -0.795689 14.813597 38.580833 11.569360 11.738563 -13.901322 -15.131921 5.249050 -7.871446 3.695417 0.149934 15.376431 -3.312588 -0.765725 -7.782899 1.039315 -0.593528 -7.919963 -4.634352 0.089621 15.462440 3.313399 0.586696 -7.897211 -1.497805 1.234668 
0.447295 53.329617 -0.500491 0.000000 0.000000 0.000000 -17.081444 0.145161 -0.000072 -8.779832 0.244714 -0.680379 5.031478 -0.943053 -0.030374 -1.612644 0.264693 0.537713 1.173175 -14.350142 -0.789760 -66.137634 -0.722431 14.021228 -39.451355 -5.397014 13.248735 35.699112 12.462098 -6.702373 3.582324 14.981649 -1.808807 58.568256 3.138798 13.692354 38.240055 8.428392 30.865757 -28.305101 -19.525196 4.308610 -9.394735 3.517340 0.194201 17.653378 -3.432544 -0.985120 -8.535607 1.082860 -0.241460 -9.501078 -4.984668 0.085425 17.817183 3.439740 0.822327 -8.665739 -1.472809 1.402163 
0.643045 53.049046 -1.029516 0.000000 0.000000 0.000000 -17.845501 0.050966 -0.040955 -9.521678 -0.152548 -0.604052 5.093934 -0.954759 -0.030751 4.586026 0.267979 0.723818 -1.323781 -14.058190 -1.111217 -64.331612 -4.641374 14.001732 -43.635521 -3.320968 23.525591 50.022617 15.035484 -6.388905 3.747990 13.125747 -1.647365 57.636646 5.307903 12.805930 39.698837 5.407210 51.053471 -44.216763 -24.303129 2.152398 -11.554763 3.391435 0.239317 20.759052 -3.600961 -1.286433 -9.482657 1.143947 0.133941 -11.642502 -5.347980 0.107796 20.895926 3.590903 1.109639 -9.580339 -1.443698 1.539163 
0.791559 53.023930 -1.760603 0.000000 0.000000 0.000000 -18.802845 -0.265661 -0.374323 -9.808887 -0.550380 -0.492896 5.216243 -0.977683 -0.031490 11.016426 0.274414 0.580217 -3.663066 -13.273377 -1.376100 -61.170723 -7.150879 14.270762 -49.492741 -1.025805 31.517872 63.937984 18.023821 -6.011419 3.573258 10.805248 -1.390327 55.632034 6.127502 12.143701 42.170055 2.631807 68.624550 -59.771641 -28.834229 -0.445086 -12.357143 3.195179 0.272574 20.483473 -3.591089 -1.255651 -8.408253 1.152653 0.309339 -12.455382 -5.534608 0.076107 20.650639 3.573918 1.099239 -8.516973 -1.353393 1.725405 
0.903221 53.165531 -2.551743 0.000000 0.000000 0.000000 -19.809423 -0.615122 -0.768517 -9.920762 -0.845163 -0.376113 5.335950 -1.000120 -0.032212 16.479900 0.280711 -0.079193 -5.263173 -12.225127 -1.520783 -58.003899 -8.367682 14.603264 -55.447258 1.082837 35.277607 75.406097 20.658001 -5.687750 3.118513 8.633838 -1.108096 53.451637 6.013471 11.695041 44.866581 0.228171 79.901886 -72.611542 -32.487011 -2.709344 -12.122638 2.968351 0.272076 17.905134 -3.469238 -1.007730 -6.076949 1.134993 0.362928 -12.246922 -5.583670 0.034696 18.123890 3.448002 0.844472 -6.197040 -1.234638 1.944999 
0.997047 53.310005 -3.250996 0.000000 0.000000 0.000000 -20.564121 -0.795285 -0.969069 -10.085657 -0.958504 -0.277567 5.403718 -1.012822 -0.032622 20.041548 0.284276 -1.323804 -5.687039 -11.107864 -1.499056 -55.914989 -8.429913 14.816586 -60.228893 2.675910 33.610607 75.423676 22.329575 -5.508943 2.444547 7.098298 -0.858274 51.828247 5.332490 11.444719 47.151299 -1.701649 82.344681 -72.676979 -34.778358 -4.029438 -11.641778 2.759345 0.258004 15.051002 -3.340250 -0.737296 -3.710738 1.089599 0.376910 -11.796193 -5.594633 -0.004078 15.337096 3.291938 0.575628 -3.875156 -1.118837 2.149803 
1.077584 53.426563 -3.835001 0.000000 0.000000 0.000000 -21.053482 -0.803421 -0.968705 -10.328142 -0.912916 -0.199762 5.422694 -1.016378 -0.032736 21.821569 0.285274 -2.756147 -5.075415 -9.975988 -1.334370 -54.927399 -7.561300 14.897696 -63.789726 3.730748 28.337828 75.441254 23.072725 -5.458877 1.613750 6.177766 -0.647263 50.836830 4.254469 11.359059 48.987053 -3.151389 77.957497 -72.742416 -35.818642 -4.448681 -10.944053 2.538132 0.222398 12.077358 -3.140171 -0.459812 -1.446764 1.065774 0.345460 -11.133385 -5.586823 -0.037105 12.466691 3.138342 0.309922 -1.654657 -1.019342 2.329103 
1.145761 53.517681 -4.312543 0.000000 0.000000 0.000000 -21.335964 -0.686654 -0.821954 -10.621842 -0.756139 -0.139860 5.409140 -1.013838 -0.032654 22.203945 0.284561 -3.862039 -3.713504 -8.848899 -1.067591 -54.799435 -6.006971 14.875963 -66.387421 4.301282 22.034021 75.458832 23.082300 -5.494638 0.688914 5.724474 -0.468664 50.387913 2.900128 11.399775 50.486683 -4.138728 69.881264 -72.807861 -35.866619 -4.173951 -10.646250 2.311741 0.204497 10.062571 -2.989644 -0.278163 0.257621 1.042874 0.407701 -10.632916 -5.637139 -0.054043 10.098088 2.993294 0.095660 0.197990 -0.926348 2.540776 
1.202510 53.585835 -4.692405 0.000000 0.000000 0.000000 -21.470026 -0.492108 -0.583345 -10.940384 -0.535912 -0.095026 5.379322 -1.008249 -0.032474 21.572651 0.282993 -4.127299 -1.886507 -7.745990 -0.739584 -55.289398 -4.012050 14.780756 -68.279640 4.441444 17.273916 75.476410 22.553144 -5.573313 -0.267172 5.590647 -0.316078 50.392010 1.390181 11.528579 51.763023 -4.681349 61.256882 -72.873299 -35.181042 -3.412121 -11.099010 2.244096 0.220648 9.990908 -2.990761 -0.273807 0.770619 1.045546 0.481234 -10.977972 -5.548414 -0.034879 9.984129 2.965119 0.086208 0.662668 -0.942768 2.485943 
